<svg width="120" height="111" viewBox="0 0 120 111" fill="none" xmlns="http://www.w3.org/2000/svg"><circle cx="61.1042" cy="52.2699" r="52.2699" fill="#F7F7F7"/><path d="M52.2786 103.939c.3605-.36.3605-.36.7211-.719 1.4421-1.439.721-3.2373-.7211-4.6759-.3606-.3597-1.8027-1.4386-3.6054-2.1579-3.6055 2.1579-2.1633 5.3948 1.8027 7.1928-.7211 0-1.0817-.359-1.4422-.359-4.3265-1.079-4.3265-1.079-5.4081-1.439 2.5238-1.439 2.8843-4.6755-2.1633-7.9124-3.2449 1.079-3.6054 4.6755.7211 7.1934-2.1633-.72-4.3265-1.7986-6.4898-2.8776.3606 0 .3606 0 .7211-.3596.7211-.3597 1.0817-.7193 1.4422-1.4386.3605-1.079 0-2.1579-.3605-2.8772-.3606-.7193-1.0817-1.4386-1.4422-2.1579 0 0-.7211-.7193-1.0816-1.079-3.6055.3597-4.3265 3.9562-.3606 7.5527-2.5238-1.4386-4.687-2.8772-6.4897-4.3158 1.0816 0 1.8027-.7193 2.5238-1.4386.721-1.079.3605-1.7983 0-2.8772-.3606-.7193-.7211-1.7983-1.0817-2.5176-.3605-.7193-.3605-.7193-.7211-1.0789h-.721c-.3606 0-.7211.3596-1.0817.3596-.721.3597-1.4421 1.079-1.4421 2.1579 0 .7193 0 1.7983 1.0816 3.5965.3605.3597.7211.7193.7211 1.079-1.8027-1.4386-3.6054-3.2369-5.4081-5.0351 3.6054 0 3.9659-3.2369 2.5237-6.4737-.3605-.7193-.3605-.7193-.721-1.079v-.3596h-.7211c-.3606 0-.7211 0-1.0816.3596-1.0817.3597-1.8028 1.079-1.8028 1.7983-.3605 1.4386 0 3.2368.7211 4.6754-1.4421-1.7982-2.8843-3.5965-4.3265-5.3947h.7211c.7211 0 1.4422-.3597 1.8027-.7193.7211-.7193 1.0816-1.7983 1.0816-2.8772 0-.7193-.3605-2.8772-.721-4.3158-4.3265-1.4386-5.7687 1.7982-4.6871 5.7544-1.0816-1.7983-2.1632-3.9562-3.2449-5.7544 2.5238.7193 5.4082-1.079 3.966-7.193-3.2449-1.4386-5.76867.7193-4.687 5.3947-1.08167-2.1579-1.80275-4.3158-2.52384-6.4737.36055 0 .36054.3597.72109.3597.72108.3596 1.44215.3596 2.16325 0 1.0816-.3597 1.4422-1.4386 1.8027-2.5176.3605-.7193.3605-1.7982.3605-2.5175v-1.4386c-2.8843-2.1579-5.76862-.7193-5.76862 5.0351 0-2.8772-.36054-5.3948-.72108-7.9123 3.2449 2.5175 6.1292-1.079 6.1292-5.3948-3.24487-2.8772-6.1292 0-6.48975 3.9562-.36054-2.5176 0-5.0351 0-7.193C8.653 49.6317 11.8979 48.9124 13.34 43.158c-2.5237-3.2369-5.76862-1.079-6.85025 2.5175.36055-2.1579.72109-4.3158 1.08163-6.4737 1.44217 2.1579 4.32652 2.1579 6.85032-1.7982.3605-.7193.3605-.7193.7211-1.079v-.3596c-1.8027-3.5965-5.0476-2.1579-6.85034 1.0789.72109-2.5175 1.44217-4.6754 2.16324-6.8333 1.0816 2.1579 2.8843 2.5175 5.0476 1.0789 1.0816-.3596 1.4422-1.0789 2.1633-1.7982.3605-.3597.3605-.7193.721-1.079-1.0816-3.2368-4.3265-3.5965-7.2108 0 1.0816-2.1579 1.8027-4.3158 3.2449-6.114.7211 2.8772 3.9659 3.9561 8.2924-.3597-.721-3.9561-4.3265-3.9561-7.2108-1.0789 1.4422-1.7983 2.5238-3.9562 3.966-5.7544v1.0789c0 .3597 0 .3597.3605.7193.3605.3597.3605.7193 1.0816 1.079h3.2449c.7211-.3597 2.5238-1.079 3.6054-2.1579 0-4.3158-3.9659-4.3158-7.2108-2.1579.7211-.3597 1.8027-1.4386 2.5238-2.1579 1.0816-1.079 1.8027-1.79827 2.5238-2.51757 0 1.43857.7211 2.87717 2.1632 3.23687h1.8027c.7211 0 1.0817-.3597 1.8027-.3597.3606 0 .7211-.3596.7211-.3596.3606 0 .3606-.3597.7211-.3597s.3606-.3596.3606-.3596c.721-3.59652-2.1633-5.39477-6.4898-3.23687v-.35965h-.3605c.721 0 1.0816-.35965 1.0816-.7193.3605-.7193.7211-1.07895 1.0816-1.79825.3605-.35965.3605-1.07895.3605-1.79825 0-.7193 0-1.07895-.3605-1.4386 0-.35965-.3605-.719296-.7211-.719296-.3605 0-.3605-.35965-.7211-.35965H25.959c-3.9659 3.236846-5.0476 7.912296-.3605 8.271946-1.8027 1.43862-3.6054 3.23682-5.0476 5.03512.3605-.3597.3605-.7193.7211-1.079 0-.7193 0-1.4386.3605-2.1579 0-.71927.3606-1.07892 0-1.79822 0-.35965-.3605-1.07895-.3605-1.4386-.3606 0-.7211-.35965-1.0817-.7193-.3605 0-.3605 0-.721-.35965H18.3876c-3.6054 4.67547-3.6054 8.99127.7211 8.63157-1.4421 1.7983-2.8843 3.9562-4.3265 5.7544 1.8027-5.3947-.3605-7.5526-3.2449-6.8333v.3596s-.3605.3597-.3605.7193c-2.52379 5.3948-.3605 7.9123 2.8843 7.5527-1.4421 1.7982-2.5238 3.9561-3.2448 5.7544 0-1.079.3605-2.1579 0-2.8772 0-1.079-.3606-2.1579-1.44221-2.8772-.36054-.3597-1.08163-.3597-1.80271-.3597-.36054 0-.72108 0-1.08163.3597-1.80271 4.6754-.72108 9.3509 3.60545 7.9123-1.08165 2.1579-1.80274 4.3158-2.16328 6.4737 0-5.3948-2.52379-6.8334-5.04759-5.3948-1.08162 5.7544 1.08163 9.3509 4.68705 7.193-.36054 2.5176-.72108 4.6755-1.08163 7.193 0-.3596 0-1.0789-.36054-1.4386-.36054-1.0789-.72108-2.5175-1.44217-3.5965-.72108-.7193-1.80271-1.0789-2.52379-.7193-.36054 0-.72108.3597-1.08162.7193l-.360546.3597C.360542 46.3948 3.24488 50.351 6.48975 47.4738v7.193-.3597C5.04759 49.272 1.80271 48.5527 0 51.0703c1.08163 7.193 4.68704 7.9123 6.8503 5.3947 0 2.1579.36054 4.6755 1.08162 7.193-1.80271-3.9561-5.04758-6.4737-7.210836-2.8772 1.081626 4.6755 5.047586 8.272 7.571376 3.9562.72109 2.1579 1.44217 4.6754 2.16324 6.8333-1.08161-1.4386-2.52378-2.8772-3.6054-3.2368-1.08163-.3597-1.80271 0-2.5238.3596-.36054.3597-.72108.7193-.72108 1.079 0 0-.36054.3596-.36054.7193 2.16325 4.6754 6.48975 7.193 8.29242 2.8772 1.0817 2.1579 2.1633 4.3158 3.2449 6.114-3.9659-3.9561-6.85028-2.8772-7.21082 0 3.24492 5.0351 7.57142 5.3948 8.65302 1.7983 1.0816 1.7982 2.5238 3.5965 3.6054 5.0351-.7211-.3597-1.4422-.7193-2.1632-1.079-.7211-.3596-1.0817-.3596-1.8028-.3596-.721 0-1.0816 0-1.4421.3596L13.34 86.316c0 .3596-.3605.3596-.3605.7193v1.0789c4.6871 5.0351 8.2925 3.9562 8.653.7193 1.4422 1.4386 2.8843 2.8772 4.3265 4.3158h-.3605c-1.4422-.7193-2.8844-.7193-3.6054-.7193-1.0817 0-1.8028.7193-2.1633 1.7983 0 .3596-.3605.7193-.3605 1.4386v.7193c.721.7193 2.8843 1.7982 4.687 2.1579 2.1633.3596 3.966-.7193 3.966-3.2369 1.4421 1.079 3.2448 2.5176 5.0476 3.2369-3.6055-1.079-6.8503 0-5.7687 3.5969 4.3265 2.517 9.3741 1.798 8.2924-2.518 2.1633 1.079 4.3265 1.798 6.4898 2.877-4.3265-.719-7.9319.72-6.1292 4.676 5.0476 1.798 9.7346 0 7.5714-3.956 2.5238 1.078 5.4081 1.798 6.8503 1.798-6.1293 0-6.8503 2.877-5.4082 5.395 5.7687 1.078 9.3741-1.799 6.8503-5.036 1.0817 0 2.1633.36 2.5238.36 0 0 .3606 0 .3606-.36 0 0 0-.359-.3606-.359-.3605-.72-1.4421-1.079-2.1632-1.079zM112.104 65.5405c.718-2.5189 1.077-4.6779 1.077-7.1968 2.153 2.8787 5.742 1.7992 6.819-5.3976-.359-.3598-.359-.3598-1.077-.7197-1.794-1.0795-3.23-.3598-4.306 1.4394-.718.7197-1.077 1.7992-1.077 2.8787v.3599c.359-2.5189.359-5.0378 0-7.5567 3.23 2.8787 6.101-1.0795 5.742-6.4771-2.153-2.1591-5.383-1.4394-6.101 5.0377-.359-2.5188-.718-5.0377-1.077-7.5566 3.589 2.159 6.101-1.0795 4.666-7.1968-2.512-1.7992-5.383-.3599-5.024 5.3976-.718-2.5189-1.436-4.678-2.154-6.837 3.948 1.7992 5.742-2.8787 3.589-7.9165-3.948-1.7992-5.024 1.7992-4.306 6.1173-1.077-2.159-2.154-4.3181-3.23-6.1173 4.306 1.0795 5.024-3.9582 2.153-8.2763-2.871-.7197-5.383 1.4393-2.871 7.1968-1.436-2.1591-2.871-3.9583-4.307-5.7575 3.948.3599 4.666-3.9582.718-8.2763-3.2299-.35984-5.0243 2.5189-1.7943 7.5567-.7178-.7197-1.4356-1.7992-2.5122-2.5189-1.4355-1.4394-2.1533-1.7992-2.871-2.5189 4.6654-.7197 3.9476-5.39762-.3589-8.99603-.7178 0-.7178 0-1.0767.35984-.7177.35984-1.0766.71968-1.4355 1.43937-.7177.71968-.3589 1.7992 0 2.87872.3589.71968 1.0767 1.7992 1.7944 2.87873-.3589-.35984-.7177 0-.3589.35987-3.9477-2.15908-7.1776-.35987-6.4598 3.2385 3.9477 2.1591 8.2542 1.7992 7.8954-2.159 1.7944 1.4394 3.5888 3.2386 5.0243 4.6779-3.2299-2.159-6.8188-2.159-6.8188 2.1591 3.23 2.8787 7.895 3.2385 8.254-.7197 1.436 1.7992 2.871 3.5984 3.948 5.3976-2.871-2.5189-6.4599-2.8787-7.1776 1.0795 4.3066 4.3181 7.1776 3.2386 8.2546.7197 1.076 2.159 2.153 3.9582 3.23 6.1173-2.871-3.9583-6.101-3.2386-7.178-.3599 3.23 5.0378 6.819 4.3181 7.895 1.7992.718 2.1591 1.436 4.3181 2.154 6.4772-1.795-3.5984-5.025-4.678-7.178-1.4394 1.794 4.3181 5.383 6.1173 7.536 3.2386.359 2.159.718 4.3181 1.077 6.4771-1.077-3.5984-4.306-5.3976-6.819-2.159 1.436 4.6779 4.307 7.1968 6.819 4.3181v6.8369c-.718-3.5984-2.871-6.1173-5.742-3.9582l-.359.3598c.359 4.3181 2.871 7.9165 6.101 5.3976-.359 2.1591-.718 4.678-1.077 6.837 0-4.6779-2.871-6.4771-5.742-4.6779v.7197c0 5.3976 2.513 6.8369 5.025 5.3976-.718 2.159-1.436 4.3181-2.154 6.4771 1.077-4.6779-1.794-6.837-4.665-5.3976-1.077 6.1173 1.436 7.9165 3.948 7.1968-1.077 2.159-2.154 3.9583-3.23 6.1173 1.435-3.5984 0-7.1968-3.948-6.1173-1.7943 4.3181-.718 8.2763 2.871 7.5567-1.435 1.7992-2.512 3.5984-4.3065 5.3976 1.7945-3.2386 1.0765-6.837-2.871-6.4772-2.1533 3.5984-2.1533 7.9165 1.7944 7.9165-1.4355 1.4394-3.2299 2.8788-4.6654 4.3181 2.1532-2.8787 1.7944-6.4771-2.1533-6.837 0 0-.3589.7197-1.0767 1.0796-.3589.7196-1.0766 1.4393-1.0766 2.5188-.7178 2.5189.3589 3.9583 2.5121 4.3181-1.7944 1.0796-3.2299 2.5189-5.3832 3.5984 3.23-3.2385 2.1533-6.1172-1.0766-6.8369-4.3066 3.9582-3.5888 7.1968-1.0766 7.9165-1.7944 1.0795-3.5888 1.7991-5.3832 2.5191 3.2299-2.5191 2.871-5.7577 0-6.8372-5.0244 3.2385-4.6655 6.4772-2.5122 7.5562-2.1533.72-3.9477 1.44-6.101 1.8 3.23-1.8 4.6655-4.6783 1.4355-6.8373-3.9476 1.4393-6.4598 5.0373-3.5888 7.1963-.7177 0-1.4355.36-2.1532.36-.3589 0-.3589.72 0 .36 0 0 1.4355-.36 2.5121-.36-2.5121 3.599 1.0767 6.118 6.8188 5.038 1.7944-2.519.7177-5.398-5.3833-5.398 2.1533-.359 4.3066-1.079 6.8188-1.799-1.7944 3.959 2.5121 5.758 7.5365 3.959 1.0766-2.519 0-5.398-6.101-4.678 2.1533-.72 4.3066-1.7996 6.4598-2.8791-1.4355 4.6781 3.9477 5.0381 8.2543 2.8791 1.0766-4.3185-2.871-4.6783-7.1776-3.239 2.1533-1.0795 4.3065-2.5189 6.1009-3.9582v1.0795c0 2.159 1.7945 2.8787 3.9477 2.5189 1.7944-.3599 4.3063-1.7992 4.6653-2.1591.359-3.5984-2.512-4.318-6.1008-2.8787-.7177.3599-1.0766.3599-1.4355.7197 1.7944-1.4394 3.5888-3.2386 5.3832-5.0378 0 3.9583 3.9481 4.678 8.6131 0 0-.7197 0-.7196-.359-1.0795-.718-1.7992-2.512-2.159-4.306-1.4394-1.077.3599-1.795.7197-2.513 1.4394l-.3585.3598c.3585-.3598.7175-.7196 1.0765-1.0795 1.436-1.4393 2.512-3.2385 3.589-5.0377.718 4.318 5.383 3.2385 8.613-1.4394-.359-2.8787-3.589-4.3181-7.895.3598 1.435-2.159 2.512-4.3181 3.589-6.4771 1.435 4.3181 6.101 2.1591 8.254-2.8787-1.436-3.9583-5.025-2.1591-7.537 1.4393 1.077-2.159 1.795-4.6779 2.512-6.8369 2.513 4.3181 6.46.7197 7.537-3.9583-2.871-2.5189-5.742-.3598-7.537 3.5984z" fill="#70B7BD"/><path d="M33.7754 47.7175l2.4342 5.1295c.1948.4063.5355.6602.925.711l5.4526.8634c1.0223.1523 1.4605 1.4728.6816 2.2346l-3.9434 4.0122c-.2921.3047-.4382.711-.3408 1.1681l.925 5.6373c.1947 1.0665-.8763 1.8791-1.8013 1.3713l-4.8684-2.641c-.3408-.2031-.7789-.2031-1.1684 0l-4.8684 2.641c-.9249.5078-1.996-.3048-1.8013-1.3713l.925-5.6373c.0487-.4063-.0486-.8634-.3407-1.1681l-3.9434-4.0122c-.7303-.7618-.3408-2.0823.6815-2.2346l5.4526-.8126c.3895-.0508.779-.3047.925-.711l2.4342-5.1295c.4381-1.0158 1.8013-1.0158 2.2394-.0508zM60.8299 27.0436l3.6513 7.4611c.2921.591.8033.9603 1.3875 1.0342l8.1788 1.2558c1.5336.2216 2.1908 2.1423 1.0224 3.2504l-5.9151 5.8359c-.4381.4432-.6572 1.0342-.5112 1.699l1.3875 8.1998c.2921 1.5513-1.3144 2.7333-2.7019 1.9945l-7.3026-3.8413c-.5112-.2955-1.1684-.2955-1.7526 0l-7.3025 3.8413c-1.3875.7388-2.9941-.4432-2.702-1.9945L49.657 47.58c.073-.591-.073-1.2558-.5112-1.699l-5.915-5.8359c-1.0954-1.1081-.5112-3.0288 1.0223-3.2504l8.1789-1.1819c.5842-.0739 1.1684-.4433 1.3875-1.0342l3.6512-7.4611c.6573-1.4774 2.702-1.4774 3.3592-.0739zM86.7754 47.7175l2.4342 5.1295c.1948.4063.5355.6602.925.711l5.4526.8634c1.0223.1523 1.4605 1.4728.6816 2.2346l-3.9434 4.0122c-.2921.3047-.4382.711-.3408 1.1681l.925 5.6373c.1947 1.0665-.8763 1.8791-1.8013 1.3713l-4.8684-2.641c-.3408-.2031-.7789-.2031-1.1684 0l-4.8684 2.641c-.9249.5078-1.996-.3048-1.8013-1.3713l.925-5.6373c.0487-.4063-.0486-.8634-.3407-1.1681l-3.9434-4.0122c-.7303-.7618-.3408-2.0823.6815-2.2346l5.4526-.8126c.3895-.0508.779-.3047.925-.711l2.4342-5.1295c.4381-1.0158 1.8013-1.0158 2.2394-.0508z" fill="#70B7BD"/></svg>