<svg width="120" height="112" viewBox="0 0 120 112" fill="none" xmlns="http://www.w3.org/2000/svg">
<circle cx="61.1044" cy="52.9483" r="52.2699" fill="#F7F7F7"/>
<path d="M52.2786 104.617C52.6391 104.258 52.6391 104.258 52.9997 103.898C54.4418 102.459 53.7207 100.661 52.2786 99.2224C51.918 98.8628 50.4759 97.7838 48.6732 97.0645C45.0677 99.2224 46.5099 102.459 50.4759 104.258C49.7548 104.258 49.3942 103.898 49.0337 103.898C44.7072 102.819 44.7072 102.819 43.6256 102.459C46.1494 101.021 46.5099 97.7838 41.4623 94.547C38.2174 95.6259 37.8569 99.2224 42.1834 101.74C40.0201 101.021 37.8569 99.9417 35.6936 98.8628C36.0542 98.8628 36.0542 98.8628 36.4147 98.5031C37.1358 98.1435 37.4964 97.7838 37.8569 97.0645C38.2174 95.9856 37.8569 94.9066 37.4964 94.1873C37.1358 93.468 36.4147 92.7487 36.0542 92.0294C36.0542 92.0294 35.3331 91.3101 34.9726 90.9505C31.3671 91.3101 30.6461 94.9066 34.612 98.5031C32.0882 97.0645 29.925 95.6259 28.1223 94.1873C29.2039 94.1873 29.925 93.468 30.6461 92.7487C31.3671 91.6698 31.0066 90.9505 30.6461 89.8715C30.2855 89.1522 29.925 88.0733 29.5644 87.354C29.2039 86.6347 29.2039 86.6347 28.8433 86.275C28.4828 86.275 28.4828 86.275 28.1223 86.275C27.7617 86.275 27.4012 86.6347 27.0406 86.6347C26.3196 86.9943 25.5985 87.7136 25.5985 88.7926C25.5985 89.5119 25.5985 90.5908 26.6801 92.3891C27.0406 92.7487 27.4012 93.1084 27.4012 93.468C25.5985 92.0294 23.7958 90.2312 21.9931 88.4329C25.5985 88.4329 25.959 85.1961 24.5168 81.9592C24.1563 81.2399 24.1563 81.2399 23.7958 80.8803C23.7958 80.8803 23.7958 80.8803 23.7958 80.5206C23.4352 80.5206 23.4352 80.5206 23.0747 80.5206C22.7141 80.5206 22.3536 80.5206 21.9931 80.8803C20.9114 81.2399 20.1903 81.9592 20.1903 82.6785C19.8298 84.1171 20.1903 85.9154 20.9114 87.354C19.4693 85.5557 18.0271 83.7575 16.5849 81.9592C16.9455 81.9592 16.9455 81.9592 17.306 81.9592C18.0271 81.9592 18.7482 81.5996 19.1087 81.2399C19.8298 80.5206 20.1903 79.4417 20.1903 78.3627C20.1903 77.6434 19.8298 75.4855 19.4693 74.0469C15.1428 72.6083 13.7006 75.8452 14.7822 79.8013C13.7006 78.0031 12.619 75.8452 11.5373 74.0469C14.0611 74.7662 16.9455 72.968 15.5033 66.8539C12.2584 65.4153 9.73463 67.5732 10.8163 72.2487C9.73463 70.0908 9.01355 67.9329 8.29246 65.775C8.65301 65.775 8.653 66.1346 9.01355 66.1346C9.73463 66.4943 10.4557 66.4943 11.1768 66.1346C12.2584 65.775 12.619 64.696 12.9795 63.6171C13.34 62.8978 13.34 61.8188 13.34 61.0995C13.34 61.0995 13.34 60.3802 13.34 59.6609C10.4557 57.503 7.57138 58.9416 7.57138 64.696C7.57138 61.8188 7.21084 59.3013 6.8503 56.7837C10.0952 59.3013 12.9795 55.7048 12.9795 51.389C9.73463 48.5118 6.8503 51.389 6.48975 55.3451C6.12921 52.8276 6.48975 50.31 6.48975 48.1521C8.653 50.31 11.8979 49.5907 13.34 43.8363C10.8163 40.5995 7.57138 42.7574 6.48975 46.3539C6.8503 44.196 7.21084 42.0381 7.57138 39.8802C9.01355 42.0381 11.8979 42.0381 14.4217 38.0819C14.7822 37.3626 14.7822 37.3626 15.1428 37.003C15.1428 37.003 15.1428 37.003 15.1428 36.6433C13.34 33.0468 10.0952 34.4854 8.29246 37.7223C9.01355 35.2047 9.73463 33.0468 10.4557 30.8889C11.5373 33.0468 13.34 33.4065 15.5033 31.9679C16.5849 31.6082 16.9455 30.8889 17.6666 30.1696C18.0271 29.81 18.0271 29.4503 18.3876 29.0907C17.306 25.8538 14.0611 25.4942 11.1768 29.0907C12.2584 26.9328 12.9795 24.7749 14.4217 22.9766C15.1428 25.8538 18.3876 26.9328 22.7141 22.617C21.9931 18.6608 18.3876 18.6608 15.5033 21.538C16.9455 19.7398 18.0271 17.5819 19.4693 15.7836C19.4693 15.7836 19.4693 15.7836 19.4693 16.1433C19.4693 16.1433 19.4693 16.5029 19.4693 16.8626C19.4693 17.2222 19.4693 17.2222 19.8298 17.5819C20.1903 17.9415 20.1903 18.3012 20.9114 18.6608C21.272 18.6608 21.6325 18.6608 22.3536 18.6608C22.7141 18.6608 23.4352 18.6608 24.1563 18.6608C24.8774 18.3012 26.6801 17.5819 27.7617 16.5029C27.7617 12.1871 23.7958 12.1871 20.5509 14.345C21.272 13.9854 22.3536 12.9064 23.0747 12.1871C24.1563 11.1082 24.8774 10.3889 25.5985 9.66958C25.5985 11.1082 26.3196 12.5468 27.7617 12.9064C28.1223 12.9064 28.8433 12.9064 29.5644 12.9064C30.2855 12.9064 30.6461 12.5468 31.3671 12.5468C31.7277 12.5468 32.0882 12.1871 32.0882 12.1871C32.4488 12.1871 32.4488 11.8275 32.8093 11.8275C33.1698 11.8275 33.1698 11.4678 33.1698 11.4678C33.8909 7.87133 31.0066 6.07308 26.6801 8.23098V7.87133H26.3196C27.0406 7.87133 27.4012 7.51168 27.4012 7.15203C27.7617 6.43273 28.1223 6.07308 28.4828 5.35378C28.8433 4.99413 28.8433 4.27483 28.8433 3.55553C28.8433 2.83623 28.8433 2.47658 28.4828 2.11693C28.4828 1.75728 28.1223 1.39763 27.7617 1.39763C27.4012 1.39763 27.4012 1.03798 27.0406 1.03798C26.6801 1.03798 26.6801 1.03798 26.3196 1.03798H25.959C21.9931 4.27483 20.9114 8.95028 25.5985 9.30993C23.7958 10.7485 21.9931 12.5468 20.5509 14.345C20.9114 13.9854 20.9114 13.6257 21.272 13.2661C21.272 12.5468 21.272 11.8275 21.6325 11.1082C21.6325 10.3889 21.9931 10.0292 21.6325 9.30993C21.6325 8.95028 21.272 8.23098 21.272 7.87133C20.9114 7.87133 20.5509 7.51168 20.1903 7.15203C19.8298 7.15203 19.8298 7.15203 19.4693 6.79238C19.1087 6.79238 19.1087 6.79238 18.7482 6.79238C18.3876 6.79238 18.3876 6.79238 18.3876 6.79238C14.7822 11.4678 14.7822 15.7836 19.1087 15.424C17.6666 17.2222 16.2244 19.3801 14.7822 21.1784C16.5849 15.7836 14.4217 13.6257 11.5373 14.345C11.5373 14.345 11.5373 14.345 11.5373 14.7047C11.5373 14.7047 11.1768 15.0643 11.1768 15.424C8.65301 20.8187 10.8163 23.3363 14.0611 22.9766C12.619 24.7749 11.5373 26.9328 10.8163 28.731C10.8163 27.6521 11.1768 26.5731 10.8163 25.8538C10.8163 24.7749 10.4557 23.6959 9.37409 22.9766C9.01355 22.617 8.29246 22.617 7.57138 22.617C7.21084 22.617 6.8503 22.617 6.48975 22.9766C4.68704 27.6521 5.76867 32.3275 10.0952 30.8889C9.01355 33.0468 8.29246 35.2047 7.93192 37.3626C7.93192 31.9679 5.40813 30.5293 2.88433 31.9679C1.80271 37.7223 3.96596 41.3188 7.57138 39.1609C7.21084 41.6784 6.8503 43.8363 6.48975 46.3539C6.48975 45.9942 6.48975 45.2749 6.12921 44.9153C5.76867 43.8363 5.40813 42.3977 4.68704 41.3188C3.96596 40.5995 2.88433 40.2398 2.16325 40.5995C1.80271 40.5995 1.44217 40.9591 1.08163 41.3188L0.721084 41.6784C0.360542 47.0732 3.24488 51.0293 6.48975 48.1521C6.48975 50.6697 6.48975 53.1872 6.48975 55.3451V54.9855C5.04759 49.9504 1.80271 49.2311 0 51.7486C1.08163 58.9416 4.68704 59.6609 6.8503 57.1434C6.8503 59.3013 7.21084 61.8188 7.93192 64.3364C6.12921 60.3802 2.88434 57.8627 0.721084 61.4592C1.80271 66.1346 5.76867 69.7311 8.29246 65.4153C9.01355 67.5732 9.73463 70.0908 10.4557 72.2487C9.37409 70.8101 7.93192 69.3715 6.8503 69.0118C5.76867 68.6522 5.04759 69.0118 4.3265 69.3715C3.96596 69.7311 3.60542 70.0908 3.60542 70.4504C3.60542 70.4504 3.24488 70.8101 3.24488 71.1697C5.40813 75.8452 9.73463 78.3627 11.5373 74.0469C12.619 76.2048 13.7006 78.3627 14.7822 80.161C10.8163 76.2048 7.93192 77.2838 7.57138 80.161C10.8163 85.1961 15.1428 85.5557 16.2244 81.9592C17.306 83.7575 18.7482 85.5557 19.8298 86.9943C19.1087 86.6347 18.3876 86.275 17.6666 85.9154C16.9455 85.5557 16.5849 85.5557 15.8638 85.5557C15.1428 85.5557 14.7822 85.5557 14.4217 85.9154C14.0611 86.275 13.7006 86.6347 13.34 86.9943C13.34 87.354 12.9795 87.354 12.9795 87.7136C12.9795 88.0733 12.9795 88.0733 12.9795 88.4329V88.7926C17.6666 93.8277 21.272 92.7487 21.6325 89.5119C23.0747 90.9505 24.5168 92.3891 25.959 93.8277H25.5985C24.1563 93.1084 22.7141 93.1084 21.9931 93.1084C20.9114 93.1084 20.1903 93.8277 19.8298 94.9066C19.8298 95.2663 19.4693 95.6259 19.4693 96.3452C19.4693 96.3452 19.4693 96.7049 19.4693 97.0645C20.1903 97.7838 22.3536 98.8628 24.1563 99.2224C26.3196 99.5821 28.1223 98.5031 28.1223 95.9856C29.5644 97.0645 31.3671 98.5031 33.1698 99.2224C29.5644 98.1435 26.3196 99.2224 27.4012 102.819C31.7277 105.336 36.7753 104.617 35.6936 100.301C37.8569 101.38 40.0201 102.1 42.1834 103.179C37.8569 102.459 34.2515 103.898 36.0542 107.854C41.1018 109.652 45.7888 107.854 43.6256 103.898C46.1494 104.977 49.0337 105.696 50.4759 105.696C44.3466 105.696 43.6256 108.573 45.0677 111.091C50.8364 112.17 54.4418 109.293 51.918 106.056C52.9997 106.056 54.0813 106.415 54.4418 106.415C54.4418 106.415 54.8024 106.415 54.8024 106.056C54.8024 106.056 54.8024 105.696 54.4418 105.696C54.0813 104.977 52.9997 104.617 52.2786 104.617Z" fill="#70B7BD"/>
<path d="M112.104 66.2189C112.822 63.7 113.181 61.5409 113.181 59.0221C115.334 61.9008 118.923 60.8213 120 53.6245C119.641 53.2646 119.641 53.2646 118.923 52.9048C117.129 51.8252 115.693 52.5449 114.616 54.3441C113.899 55.0638 113.54 56.1433 113.54 57.2229V57.5827C113.899 55.0638 113.899 52.5449 113.54 50.026C116.77 52.9048 119.641 48.9465 119.282 43.5489C117.129 41.3899 113.899 42.1095 113.181 48.5867C112.822 46.0678 112.463 43.5489 112.104 41.03C115.693 43.1891 118.205 39.9505 116.77 33.8332C114.258 32.034 111.387 33.4734 111.745 39.2308C111.028 36.7119 110.31 34.5529 109.592 32.3939C113.54 34.1931 115.334 29.5151 113.181 24.4774C109.233 22.6782 108.157 26.2766 108.874 30.5946C107.798 28.4356 106.721 26.2766 105.644 24.4774C109.951 25.5569 110.669 20.5191 107.798 16.201C104.927 15.4813 102.415 17.6404 104.927 23.3978C103.491 21.2388 102.056 19.4396 100.62 17.6404C104.568 18.0002 105.286 13.6821 101.338 9.36405C98.108 9.00421 96.3136 11.8829 99.5435 16.9207C98.8257 16.201 98.108 15.1215 97.0313 14.4018C95.5958 12.9625 94.878 12.6026 94.1603 11.8829C98.8257 11.1633 98.108 6.48532 93.8014 2.88692C93.0836 2.88692 93.0836 2.88692 92.7247 3.24676C92.007 3.6066 91.6481 3.96644 91.2892 4.68612C90.5715 5.4058 90.9303 6.48532 91.2892 7.56485C91.6481 8.28453 92.3659 9.36405 93.0836 10.4436C92.7248 10.0837 92.3659 10.4436 92.7247 10.8034C88.7771 8.64437 85.5471 10.4436 86.2649 14.042C90.2126 16.201 94.5191 15.8412 94.1603 11.8829C95.9547 13.3223 97.7491 15.1215 99.1846 16.5609C95.9547 14.4018 92.3659 14.4018 92.3659 18.7199C95.5958 21.5986 100.261 21.9585 100.62 18.0002C102.056 19.7994 103.491 21.5986 104.568 23.3978C101.697 20.879 98.108 20.5191 97.3902 24.4774C101.697 28.7954 104.568 27.7159 105.644 25.197C106.721 27.3561 107.798 29.1553 108.874 31.3143C106.003 27.3561 102.773 28.0758 101.697 30.9545C104.927 35.9923 108.515 35.2726 109.592 32.7537C110.31 34.9127 111.028 37.0718 111.745 39.2308C109.951 35.6324 106.721 34.5529 104.568 37.7915C106.362 42.1095 109.951 43.9088 112.104 41.03C112.463 43.1891 112.822 45.3481 113.181 47.5072C112.104 43.9087 108.874 42.1096 106.362 45.3481C107.798 50.026 110.669 52.5449 113.181 49.6662C113.181 51.8252 113.181 54.3441 113.181 56.5032C112.463 52.9048 110.31 50.3859 107.439 52.5449L107.08 52.9048C107.439 57.2229 109.951 60.8213 113.181 58.3024C112.822 60.4614 112.463 62.9803 112.104 65.1393C112.104 60.4614 109.233 58.6622 106.362 60.4614C106.362 60.8213 106.362 61.1811 106.362 61.1811C106.362 66.5787 108.874 68.0181 111.387 66.5787C110.669 68.7378 109.951 70.8968 109.233 73.0558C110.31 68.3779 107.439 66.2189 104.568 67.6582C103.491 73.7755 106.003 75.5747 108.515 74.855C107.439 77.0141 106.362 78.8133 105.286 80.9723C106.721 77.3739 105.286 73.7755 101.338 74.855C99.5435 79.1731 100.62 83.1314 104.209 82.4117C102.773 84.2109 101.697 86.0101 99.9024 87.8093C101.697 84.5707 100.979 80.9723 97.0313 81.3322C94.878 84.9306 94.878 89.2487 98.8257 89.2487C97.3902 90.688 95.5958 92.1274 94.1603 93.5668C96.3136 90.688 95.9547 87.0896 92.007 86.7298C92.007 86.7298 91.6481 87.4495 90.9303 87.8093C90.5715 88.529 89.8537 89.2487 89.8537 90.3282C89.1359 92.8471 90.2126 94.2864 92.3659 94.6463C90.5715 95.7258 89.1359 97.1652 86.9827 98.2447C90.2126 95.0061 89.1359 92.1274 85.906 91.4077C81.5995 95.366 82.3172 98.6045 84.8294 99.3242C83.035 100.404 81.2406 101.123 79.4462 101.843C82.6761 99.3242 82.3172 96.0856 79.4462 95.0061C74.4218 98.2447 74.7807 101.483 76.934 102.563C74.7807 103.282 72.9863 104.002 70.833 104.362C74.063 102.563 75.4985 99.6841 72.2686 97.525C68.3209 98.9644 65.8087 102.563 68.6798 104.722C67.962 104.722 67.2442 105.082 66.5265 105.082C66.1676 105.082 66.1676 105.801 66.5265 105.442C66.5265 105.442 67.962 105.082 69.0386 105.082C66.5265 108.68 70.1153 111.199 75.8574 110.119C77.6518 107.601 76.5751 104.722 70.4742 104.722C72.6274 104.362 74.7807 103.642 77.2929 102.923C75.4985 106.881 79.8051 108.68 84.8294 106.881C85.906 104.362 84.8294 101.483 78.7284 102.203C80.8817 101.483 83.035 100.404 85.1883 99.3242C83.7527 104.002 89.1359 104.362 93.4425 102.203C94.5192 97.8848 90.5715 97.525 86.2649 98.9644C88.4182 97.8848 90.5715 96.4455 92.3659 95.0061C92.3659 95.366 92.3659 95.7258 92.3659 96.0856C92.3659 98.2447 94.1603 98.9644 96.3136 98.6045C98.108 98.2447 100.62 96.8053 100.979 96.4455C101.338 92.8471 98.4668 92.1274 94.878 93.5668C94.1603 93.9266 93.8014 93.9266 93.4425 94.2864C95.2369 92.8471 97.0313 91.0479 98.8257 89.2487C98.8257 93.2069 102.773 93.9266 107.439 89.2487C107.439 88.529 107.439 88.529 107.08 88.1692C106.362 86.3699 104.568 86.0101 102.773 86.7298C101.697 87.0896 100.979 87.4495 100.261 88.1692L99.9024 88.529C100.261 88.1692 100.62 87.8093 100.979 87.4495C102.415 86.0101 103.491 84.2109 104.568 82.4117C105.286 86.7298 109.951 85.6503 113.181 80.9723C112.822 78.0936 109.592 76.6543 105.286 81.3322C106.721 79.1731 107.798 77.0141 108.874 74.855C110.31 79.1731 114.975 77.0141 117.129 71.9763C115.693 68.0181 112.104 69.8173 109.592 73.4157C110.669 71.2566 111.387 68.7378 112.104 66.5787C114.616 70.8968 118.564 67.2984 119.641 62.6205C116.77 60.1016 113.899 62.2606 112.104 66.2189Z" fill="#70B7BD"/>
<path d="M56.4902 23.6909C56.9132 23.1629 57.448 22.737 58.0554 22.4444C58.6628 22.1519 59.3275 22 60.0007 22C60.6739 22 61.3386 22.1519 61.9461 22.4444C62.5535 22.737 63.0883 23.1629 63.5113 23.6909L67.6309 28.8309L73.9571 27.1115C74.607 26.9349 75.2878 26.907 75.9498 27.03C76.6117 27.1531 77.2379 27.4238 77.7826 27.8224C78.3273 28.221 78.7766 28.7374 79.0977 29.3338C79.4187 29.9302 79.6033 30.5914 79.638 31.269L79.9764 37.8692L86.095 40.2345C86.723 40.4773 87.2891 40.8586 87.7521 41.3505C88.215 41.8423 88.563 42.4323 88.7706 43.0772C88.9782 43.7221 89.0402 44.4056 88.952 45.0777C88.8638 45.7499 88.6277 46.3937 88.2609 46.962L84.6962 52.4977L88.2699 58.038C88.6367 58.6063 88.8729 59.2501 88.961 59.9223C89.0492 60.5944 88.9873 61.2779 88.7796 61.9228C88.572 62.5677 88.224 63.1577 87.7611 63.6495C87.2982 64.1414 86.732 64.5227 86.1041 64.7655L79.9809 67.1308L79.6425 73.7264C79.6077 74.4036 79.4231 75.0643 79.1024 75.6602C78.7816 76.2562 78.3327 76.7723 77.7886 77.1708C77.2444 77.5694 76.6188 77.8402 75.9574 77.9636C75.2961 78.087 74.6157 78.0598 73.9661 77.8839L67.6354 76.1691L63.5158 81.3091C63.0928 81.8371 62.558 82.263 61.9506 82.5556C61.3431 82.8481 60.6785 83 60.0052 83C59.332 83 58.6673 82.8481 58.0599 82.5556C57.4525 82.263 56.9177 81.8371 56.4947 81.3091L52.375 76.1691L46.0489 77.8839C45.399 78.0606 44.7181 78.0884 44.0562 77.9654C43.3943 77.8424 42.768 77.5717 42.2233 77.173C41.6786 76.7744 41.2293 76.258 40.9083 75.6616C40.5872 75.0653 40.4026 74.4041 40.368 73.7264L40.0295 67.1308L33.9109 64.7655C33.2823 64.5228 32.7155 64.1414 32.2521 63.6492C31.7887 63.157 31.4404 62.5665 31.2327 61.9211C31.0251 61.2756 30.9633 60.5914 31.0519 59.9187C31.1406 59.2461 31.3774 58.6019 31.7451 58.0335L35.3097 52.4977L31.7315 46.962C31.364 46.3932 31.1274 45.7488 31.039 45.0759C30.9507 44.403 31.0128 43.7187 31.2209 43.0731C31.4291 42.4276 31.7779 41.8372 32.2418 41.3452C32.7057 40.8532 33.2729 40.4722 33.9019 40.2299L40.025 37.8692L40.3589 31.2736C40.393 30.5956 40.5771 29.9338 40.8979 29.3369C41.2186 28.74 41.6679 28.223 42.2126 27.8239C42.7574 27.4247 43.3839 27.1536 44.0461 27.0303C44.7084 26.9071 45.3896 26.9348 46.0398 27.1115L52.366 28.8264L56.4857 23.6864L56.4902 23.6909ZM69.5667 44.1463L56.6165 57.2375L50.3175 50.8875L50.0016 50.6282C49.5384 50.3039 48.9714 50.1662 48.4125 50.2423C47.8535 50.3184 47.3431 50.6028 46.9819 51.0395C46.6206 51.4761 46.4347 52.0334 46.4608 52.6013C46.4869 53.1693 46.7231 53.7068 47.1228 54.108L55.0192 62.0682L55.3351 62.332C55.7702 62.6341 56.2966 62.7728 56.8227 62.7237C57.3488 62.6747 57.8411 62.4411 58.2139 62.0636L72.7614 47.3577L73.0231 47.0393C73.34 46.5716 73.4724 46.0016 73.3943 45.4407C73.3163 44.8798 73.0335 44.3685 72.6013 44.0067C72.169 43.6449 71.6184 43.4587 71.0572 43.4845C70.4959 43.5103 69.9644 43.7463 69.5667 44.1463ZM40.0295 37.8692L40.8327 39.9934L40.0295 37.8692Z" fill="#70B7BD"/>
</svg>
