<svg width="121" height="111" viewBox="0 0 121 111" fill="none" xmlns="http://www.w3.org/2000/svg">
<circle cx="61.7714" cy="52.2699" r="52.2699" fill="#F7F7F7"/>
<path d="M52.9456 103.939C53.3061 103.579 53.3061 103.579 53.6666 103.22C55.1088 101.781 54.3877 99.9827 52.9456 98.5441C52.585 98.1844 51.1429 97.1055 49.3401 96.3862C45.7347 98.5441 47.1769 101.781 51.1429 103.579C50.4218 103.579 50.0612 103.22 49.7007 103.22C45.3742 102.141 45.3742 102.141 44.2926 101.781C46.8163 100.342 47.1769 97.1055 42.1293 93.8686C38.8844 94.9476 38.5239 98.5441 42.8504 101.062C40.6871 100.342 38.5239 99.2634 36.3606 98.1844C36.7212 98.1844 36.7212 98.1844 37.0817 97.8248C37.8028 97.4651 38.1633 97.1055 38.5239 96.3862C38.8844 95.3072 38.5239 94.2283 38.1633 93.509C37.8028 92.7897 37.0817 92.0704 36.7212 91.3511C36.7212 91.3511 36.0001 90.6318 35.6396 90.2721C32.0341 90.6318 31.313 94.2283 35.279 97.8248C32.7552 96.3862 30.592 94.9476 28.7893 93.509C29.8709 93.509 30.592 92.7897 31.3131 92.0704C32.0341 90.9914 31.6736 90.2721 31.3131 89.1932C30.9525 88.4739 30.592 87.3949 30.2314 86.6756C29.8709 85.9563 29.8709 85.9563 29.5103 85.5967C29.1498 85.5967 29.1498 85.5967 28.7893 85.5967C28.4287 85.5967 28.0682 85.9563 27.7076 85.9563C26.9865 86.316 26.2655 87.0353 26.2655 88.1142C26.2655 88.8335 26.2655 89.9125 27.3471 91.7107C27.7076 92.0704 28.0682 92.43 28.0682 92.7897C26.2655 91.3511 24.4628 89.5528 22.66 87.7546C26.2655 87.7546 26.626 84.5177 25.1838 81.2809C24.8233 80.5616 24.8233 80.5616 24.4628 80.2019C24.4628 80.2019 24.4628 80.2019 24.4628 79.8423C24.1022 79.8423 24.1022 79.8423 23.7417 79.8423C23.3811 79.8423 23.0206 79.8423 22.66 80.2019C21.5784 80.5616 20.8573 81.2809 20.8573 82.0002C20.4968 83.4388 20.8573 85.237 21.5784 86.6756C20.1363 84.8774 18.6941 83.0791 17.2519 81.2809C17.6125 81.2809 17.6125 81.2809 17.973 81.2809C18.6941 81.2809 19.4152 80.9212 19.7757 80.5616C20.4968 79.8423 20.8573 78.7633 20.8573 77.6844C20.8573 76.9651 20.4968 74.8072 20.1363 73.3686C15.8098 71.93 14.3676 75.1668 15.4492 79.123C14.3676 77.3247 13.286 75.1668 12.2043 73.3686C14.7281 74.0879 17.6125 72.2896 16.1703 66.1756C12.9254 64.737 10.4016 66.8949 11.4832 71.5703C10.4016 69.4124 9.68054 67.2545 8.95946 65.0966C9.32 65.0966 9.32 65.4563 9.68054 65.4563C10.4016 65.8159 11.1227 65.8159 11.8438 65.4563C12.9254 65.0966 13.286 64.0177 13.6465 62.9387C14.007 62.2194 14.007 61.1405 14.007 60.4212C14.007 60.4212 14.007 59.7019 14.007 58.9826C11.1227 56.8247 8.23837 58.2633 8.23837 64.0177C8.23837 61.1405 7.87783 58.6229 7.51729 56.1054C10.7622 58.6229 13.6465 55.0264 13.6465 50.7106C10.4016 47.8334 7.51729 50.7106 7.15675 54.6668C6.7962 52.1492 7.15675 49.6317 7.15675 47.4738C9.32 49.6317 12.5649 48.9124 14.007 43.158C11.4832 39.9211 8.23837 42.079 7.15675 45.6755C7.51729 43.5176 7.87783 41.3597 8.23837 39.2018C9.68054 41.3597 12.5649 41.3597 15.0887 37.4036C15.4492 36.6843 15.4492 36.6843 15.8098 36.3246C15.8098 36.3246 15.8098 36.3246 15.8098 35.965C14.007 32.3685 10.7622 33.8071 8.95946 37.0439C9.68054 34.5264 10.4016 32.3685 11.1227 30.2106C12.2043 32.3685 14.007 32.7281 16.1703 31.2895C17.2519 30.9299 17.6125 30.2106 18.3335 29.4913C18.6941 29.1316 18.6941 28.772 19.0546 28.4123C17.973 25.1755 14.7281 24.8158 11.8438 28.4123C12.9254 26.2544 13.6465 24.0965 15.0887 22.2983C15.8098 25.1755 19.0546 26.2544 23.3811 21.9386C22.66 17.9825 19.0546 17.9825 16.1703 20.8597C17.6125 19.0614 18.6941 16.9035 20.1363 15.1053C20.1363 15.1053 20.1363 15.1053 20.1363 15.4649C20.1363 15.4649 20.1363 15.8246 20.1363 16.1842C20.1363 16.5439 20.1363 16.5439 20.4968 16.9035C20.8573 17.2632 20.8573 17.6228 21.5784 17.9825C21.939 17.9825 22.2995 17.9825 23.0206 17.9825C23.3811 17.9825 24.1022 17.9825 24.8233 17.9825C25.5444 17.6228 27.3471 16.9035 28.4287 15.8246C28.4287 11.5088 24.4628 11.5088 21.2179 13.6667C21.939 13.307 23.0206 12.2281 23.7417 11.5088C24.8233 10.4298 25.5444 9.71053 26.2655 8.99123C26.2655 10.4298 26.9865 11.8684 28.4287 12.2281C28.7893 12.2281 29.5103 12.2281 30.2314 12.2281C30.9525 12.2281 31.3131 11.8684 32.0341 11.8684C32.3947 11.8684 32.7552 11.5088 32.7552 11.5088C33.1158 11.5088 33.1158 11.1491 33.4763 11.1491C33.8368 11.1491 33.8368 10.7895 33.8368 10.7895C34.5579 7.19298 31.6736 5.39473 27.3471 7.55263V7.19298H26.9865C27.7076 7.19298 28.0682 6.83333 28.0682 6.47368C28.4287 5.75438 28.7893 5.39473 29.1498 4.67543C29.5103 4.31578 29.5103 3.59648 29.5103 2.87718C29.5103 2.15788 29.5103 1.79823 29.1498 1.43858C29.1498 1.07893 28.7893 0.719284 28.4287 0.719284C28.0682 0.719284 28.0682 0.359634 27.7076 0.359634C27.3471 0.359634 27.3471 0.359634 26.9865 0.359634H26.626C22.66 3.59648 21.5784 8.27193 26.2655 8.63158C24.4628 10.0702 22.66 11.8684 21.2179 13.6667C21.5784 13.307 21.5784 12.9474 21.939 12.5877C21.939 11.8684 21.939 11.1491 22.2995 10.4298C22.2995 9.71053 22.66 9.35088 22.2995 8.63158C22.2995 8.27193 21.939 7.55263 21.939 7.19298C21.5784 7.19298 21.2179 6.83333 20.8573 6.47368C20.4968 6.47368 20.4968 6.47368 20.1363 6.11403C19.7757 6.11403 19.7757 6.11403 19.4152 6.11403C19.0546 6.11403 19.0546 6.11403 19.0546 6.11403C15.4492 10.7895 15.4492 15.1053 19.7757 14.7456C18.3335 16.5439 16.8914 18.7018 15.4492 20.5C17.2519 15.1053 15.0887 12.9474 12.2043 13.6667C12.2043 13.6667 12.2043 13.6667 12.2043 14.0263C12.2043 14.0263 11.8438 14.386 11.8438 14.7456C9.32 20.1404 11.4832 22.6579 14.7281 22.2983C13.286 24.0965 12.2043 26.2544 11.4832 28.0527C11.4832 26.9737 11.8438 25.8948 11.4832 25.1755C11.4832 24.0965 11.1227 23.0176 10.0411 22.2983C9.68054 21.9386 8.95946 21.9386 8.23837 21.9386C7.87783 21.9386 7.51729 21.9386 7.15675 22.2983C5.35404 26.9737 6.43566 31.6492 10.7622 30.2106C9.68054 32.3685 8.95946 34.5264 8.59891 36.6843C8.59891 31.2895 6.07512 29.8509 3.55133 31.2895C2.4697 37.0439 4.63295 40.6404 8.23837 38.4825C7.87783 41.0001 7.51729 43.158 7.15675 45.6755C7.15675 45.3159 7.15675 44.5966 6.7962 44.2369C6.43566 43.158 6.07512 41.7194 5.35404 40.6404C4.63295 39.9211 3.55133 39.5615 2.83024 39.9211C2.4697 39.9211 2.10916 40.2808 1.74862 40.6404L1.38808 41.0001C1.02753 46.3948 3.91187 50.351 7.15675 47.4738C7.15675 49.9913 7.15675 52.5089 7.15675 54.6668V54.3071C5.71458 49.272 2.4697 48.5527 0.666992 51.0703C1.74862 58.2633 5.35404 58.9826 7.51729 56.465C7.51729 58.6229 7.87783 61.1405 8.59891 63.658C6.7962 59.7019 3.55133 57.1843 1.38808 60.7808C2.4697 65.4563 6.43566 69.0528 8.95946 64.737C9.68054 66.8949 10.4016 69.4124 11.1227 71.5703C10.0411 70.1317 8.59891 68.6931 7.51729 68.3335C6.43566 67.9738 5.71458 68.3335 4.99349 68.6931C4.63295 69.0528 4.27241 69.4124 4.27241 69.7721C4.27241 69.7721 3.91187 70.1317 3.91187 70.4914C6.07512 75.1668 10.4016 77.6844 12.2043 73.3686C13.286 75.5265 14.3676 77.6844 15.4492 79.4826C11.4832 75.5265 8.59891 76.6054 8.23837 79.4826C11.4832 84.5177 15.8098 84.8774 16.8914 81.2809C17.973 83.0791 19.4152 84.8774 20.4968 86.316C19.7757 85.9563 19.0546 85.5967 18.3335 85.237C17.6125 84.8774 17.2519 84.8774 16.5308 84.8774C15.8098 84.8774 15.4492 84.8774 15.0887 85.237C14.7281 85.5967 14.3676 85.9563 14.007 86.316C14.007 86.6756 13.6465 86.6756 13.6465 87.0353C13.6465 87.3949 13.6465 87.3949 13.6465 87.7546V88.1142C18.3335 93.1493 21.939 92.0704 22.2995 88.8335C23.7417 90.2721 25.1838 91.7107 26.626 93.1493H26.2655C24.8233 92.43 23.3811 92.43 22.66 92.43C21.5784 92.43 20.8573 93.1493 20.4968 94.2283C20.4968 94.5879 20.1363 94.9476 20.1363 95.6669C20.1363 95.6669 20.1363 96.0265 20.1363 96.3862C20.8573 97.1055 23.0206 98.1844 24.8233 98.5441C26.9865 98.9037 28.7893 97.8248 28.7893 95.3072C30.2314 96.3862 32.0341 97.8248 33.8368 98.5441C30.2314 97.4651 26.9865 98.5441 28.0682 102.141C32.3947 104.658 37.4423 103.939 36.3606 99.623C38.5239 100.702 40.6871 101.421 42.8504 102.5C38.5239 101.781 34.9185 103.22 36.7212 107.176C41.7688 108.974 46.4558 107.176 44.2926 103.22C46.8163 104.298 49.7007 105.018 51.1429 105.018C45.0136 105.018 44.2926 107.895 45.7347 110.413C51.5034 111.491 55.1088 108.614 52.585 105.377C53.6666 105.377 54.7483 105.737 55.1088 105.737C55.1088 105.737 55.4694 105.737 55.4694 105.377C55.4694 105.377 55.4694 105.018 55.1088 105.018C54.7483 104.298 53.6666 103.939 52.9456 103.939Z" fill="#70B7BD"/>
<path d="M112.771 65.5405C113.489 63.0216 113.848 60.8626 113.848 58.3437C116.001 61.2224 119.59 60.1429 120.667 52.9461C120.308 52.5863 120.308 52.5863 119.59 52.2264C117.796 51.1469 116.36 51.8666 115.283 53.6658C114.566 54.3855 114.207 55.465 114.207 56.5445V56.9044C114.566 54.3855 114.566 51.8666 114.207 49.3477C117.437 52.2264 120.308 48.2682 119.949 42.8706C117.796 40.7115 114.566 41.4312 113.848 47.9083C113.489 45.3895 113.13 42.8706 112.771 40.3517C116.36 42.5107 118.872 39.2722 117.437 33.1549C114.925 31.3557 112.054 32.795 112.412 38.5525C111.695 36.0336 110.977 33.8745 110.259 31.7155C114.207 33.5147 116.001 28.8368 113.848 23.799C109.9 21.9998 108.824 25.5982 109.541 29.9163C108.465 27.7573 107.388 25.5982 106.311 23.799C110.618 24.8785 111.336 19.8408 108.465 15.5227C105.594 14.803 103.082 16.962 105.594 22.7195C104.158 20.5604 102.723 18.7612 101.287 16.962C105.235 17.3219 105.953 13.0038 102.005 8.6857C98.7749 8.32586 96.9805 11.2046 100.21 16.2424C99.4927 15.5227 98.775 14.4432 97.6983 13.7235C96.2628 12.2841 95.545 11.9243 94.8273 11.2046C99.4927 10.4849 98.7749 5.80698 94.4684 2.20857C93.7506 2.20857 93.7506 2.20857 93.3917 2.56841C92.674 2.92825 92.3151 3.28809 91.9562 4.00778C91.2385 4.72746 91.5973 5.80698 91.9562 6.8865C92.3151 7.60618 93.0329 8.6857 93.7506 9.76523C93.3917 9.40539 93.0329 9.76523 93.3917 10.1251C89.4441 7.96602 86.2141 9.76523 86.9319 13.3636C90.8796 15.5227 95.1861 15.1628 94.8273 11.2046C96.6217 12.644 98.4161 14.4432 99.8516 15.8825C96.6217 13.7235 93.0329 13.7235 93.0329 18.0416C96.2628 20.9203 100.928 21.2801 101.287 17.3219C102.723 19.1211 104.158 20.9203 105.235 22.7195C102.364 20.2006 98.7749 19.8408 98.0572 23.799C102.364 28.1171 105.235 27.0376 106.311 24.5187C107.388 26.6777 108.465 28.4769 109.541 30.636C106.67 26.6777 103.44 27.3974 102.364 30.2761C105.594 35.3139 109.182 34.5942 110.259 32.0753C110.977 34.2344 111.695 36.3934 112.412 38.5525C110.618 34.9541 107.388 33.8745 105.235 37.1131C107.029 41.4312 110.618 43.2304 112.771 40.3517C113.13 42.5107 113.489 44.6698 113.848 46.8288C112.771 43.2304 109.541 41.4312 107.029 44.6698C108.465 49.3477 111.336 51.8666 113.848 48.9879C113.848 51.1469 113.848 53.6658 113.848 55.8248C113.13 52.2264 110.977 49.7075 108.106 51.8666L107.747 52.2264C108.106 56.5445 110.618 60.1429 113.848 57.624C113.489 59.7831 113.13 62.302 112.771 64.461C112.771 59.7831 109.9 57.9839 107.029 59.7831C107.029 60.1429 107.029 60.5028 107.029 60.5028C107.029 65.9004 109.541 67.3397 112.054 65.9004C111.336 68.0594 110.618 70.2185 109.9 72.3775C110.977 67.6996 108.106 65.5405 105.235 66.9799C104.158 73.0972 106.67 74.8964 109.182 74.1767C108.106 76.3357 107.029 78.135 105.953 80.294C107.388 76.6956 105.953 73.0972 102.005 74.1767C100.21 78.4948 101.287 82.453 104.876 81.7334C103.44 83.5326 102.364 85.3318 100.569 87.131C102.364 83.8924 101.646 80.294 97.6983 80.6538C95.545 84.2522 95.545 88.5703 99.4927 88.5703C98.0572 90.0097 96.2628 91.4491 94.8273 92.8884C96.9805 90.0097 96.6217 86.4113 92.674 86.0514C92.674 86.0514 92.3151 86.7711 91.5973 87.131C91.2385 87.8506 90.5207 88.5703 90.5207 89.6498C89.8029 92.1687 90.8796 93.6081 93.0329 93.9679C91.2385 95.0475 89.8029 96.4868 87.6497 97.5663C90.8796 94.3278 89.8029 91.4491 86.573 90.7294C82.2664 94.6876 82.9842 97.9262 85.4964 98.6459C83.702 99.7254 81.9076 100.445 80.1132 101.165C83.3431 98.6459 82.9842 95.4073 80.1132 94.3278C75.0888 97.5663 75.4477 100.805 77.601 101.884C75.4477 102.604 73.6533 103.324 71.5 103.684C74.73 101.884 76.1655 99.0057 72.9356 96.8467C68.9879 98.286 66.4757 101.884 69.3468 104.043C68.629 104.043 67.9112 104.403 67.1935 104.403C66.8346 104.403 66.8346 105.123 67.1935 104.763C67.1935 104.763 68.629 104.403 69.7056 104.403C67.1935 108.002 70.7823 110.521 76.5244 109.441C78.3188 106.922 77.2421 104.043 71.1412 104.043C73.2944 103.684 75.4477 102.964 77.9599 102.244C76.1655 106.203 80.472 108.002 85.4964 106.203C86.573 103.684 85.4964 100.805 79.3954 101.525C81.5487 100.805 83.702 99.7254 85.8553 98.6459C84.4197 103.324 89.8029 103.684 94.1095 101.525C95.1861 97.2065 91.2385 96.8467 86.9319 98.286C89.0852 97.2065 91.2385 95.7671 93.0329 94.3278C93.0329 94.6876 93.0329 95.0475 93.0329 95.4073C93.0329 97.5663 94.8273 98.286 96.9805 97.9262C98.7749 97.5663 101.287 96.127 101.646 95.7671C102.005 92.1687 99.1338 91.4491 95.545 92.8884C94.8273 93.2483 94.4684 93.2483 94.1095 93.6081C95.9039 92.1687 97.6983 90.3695 99.4927 88.5703C99.4927 92.5286 103.44 93.2483 108.106 88.5703C108.106 87.8506 108.106 87.8507 107.747 87.4908C107.029 85.6916 105.235 85.3318 103.44 86.0514C102.364 86.4113 101.646 86.7711 100.928 87.4908L100.569 87.8506C100.928 87.4908 101.287 87.131 101.646 86.7711C103.082 85.3318 104.158 83.5326 105.235 81.7334C105.953 86.0514 110.618 84.9719 113.848 80.294C113.489 77.4153 110.259 75.9759 105.953 80.6538C107.388 78.4948 108.465 76.3357 109.541 74.1767C110.977 78.4948 115.642 76.3357 117.796 71.298C116.36 67.3397 112.771 69.1389 110.259 72.7373C111.336 70.5783 112.054 68.0594 112.771 65.9004C115.283 70.2185 119.231 66.62 120.308 61.9421C117.437 59.4232 114.566 61.5823 112.771 65.5405Z" fill="#70B7BD"/>
<path fill-rule="evenodd" clip-rule="evenodd" d="M65.3025 78.7716L87.4091 43.0489C89.3673 39.8777 88.2716 35.6465 84.9521 33.6026L84.5708 33.3671L84.6607 33.2214C86.9267 29.5566 85.64 24.6569 81.7841 22.2788L80.6878 21.6048C76.8353 19.2259 71.8722 20.275 69.6062 23.9398L69.5136 24.0898L68.803 23.654C65.4905 21.6085 61.2081 22.5186 59.2437 25.6949L37.1372 61.4176C35.1755 64.5896 36.2763 68.8269 39.5907 70.8647L55.7406 80.8168C59.0609 82.8641 63.3382 81.9479 65.3025 78.7716ZM70.696 32.7767C69.9862 29.7753 70.5603 29.7503 73.7021 29C76.8421 28.2575 76.9947 29.4359 77.7044 32.4373C78.4141 35.4386 77.2932 35.193 74.1591 35.9451C71.0132 36.678 71.4041 35.7711 70.696 32.7767ZM48.3252 71.7123L51.1972 67.0662C49.0582 65.1859 47.8826 62.474 48.1527 59.7936C48.1804 59.4887 48.2699 59.1926 48.4158 58.9234C48.5616 58.6543 48.7608 58.4176 49.0011 58.2279C49.2478 58.0303 49.5321 57.8848 49.8366 57.8002C50.1412 57.7155 50.4598 57.6936 50.7731 57.7357C51.3981 57.8138 51.9684 58.1312 52.3641 58.6212C52.7598 59.1112 52.9501 59.7356 52.8948 60.363C52.8056 61.255 53.1498 62.169 53.7541 62.9447L57.0872 57.5711C53.9425 54.8271 52.9743 50.4231 55.0129 47.1121C57.0682 43.779 61.4558 42.6792 65.3181 44.2947L68.1318 39.7429L70.8273 41.4073L68.0123 45.9851C70.1493 47.8878 71.3257 50.6031 71.053 53.2879C71.0211 53.5974 70.9271 53.8974 70.7767 54.1698C70.6263 54.4422 70.4225 54.6814 70.1775 54.8733C69.9325 55.0651 69.6513 55.2056 69.3507 55.2863C69.0502 55.367 68.7365 55.3863 68.4283 55.3431C67.8048 55.2587 67.2374 54.9385 66.843 54.4482C66.4487 53.958 66.2573 53.3352 66.3085 52.7081C66.4011 51.8152 66.062 50.9073 65.4689 50.1326L62.1467 55.5366C65.2276 58.2737 66.1592 62.6316 64.133 65.9176C62.1034 69.2044 57.8096 70.3296 54.0006 68.8003L51.1566 73.4252L48.3252 71.7123Z" fill="#70B7BD"/>
<path fill-rule="evenodd" clip-rule="evenodd" d="M59.0668 49.7395C58.3611 50.8871 58.6165 52.4004 59.5819 53.5737L62.743 48.4786C61.2538 48.1391 59.7787 48.5867 59.0668 49.7395Z" fill="#70B7BD"/>
<path fill-rule="evenodd" clip-rule="evenodd" d="M60.0005 63.4262C60.6867 62.3197 60.4651 60.8717 59.5771 59.7167L56.5055 64.7101C57.9281 64.9848 59.3213 64.531 60.0005 63.4262Z" fill="#70B7BD"/>
</svg>
