<svg width="80" height="80" viewBox="0 0 80 80" fill="none" xmlns="http://www.w3.org/2000/svg"><rect width="80" height="80" rx="40" fill="#fff"/><path fill-rule="evenodd" clip-rule="evenodd" d="M59.9673 15.2078c.2009.1243.3668.2979.4819.5043.1151.2064.1756.4388.1757.6751v41.6249c0 .368-.1462.7209-.4064.9811s-.6131.4064-.9811.4064h-8.325c-.3679 0-.7209-.1462-.9811-.4064s-.4064-.6131-.4064-.9811v-4.1625H46.75v4.1625c0 .368-.1462.7209-.4064.9811s-.6132.4064-.9811.4064h-24.975c-.368 0-.7209-.1462-.9811-.4064S19 58.3801 19 58.0121V42.7496c.0002-.2911.092-.5747.2623-.8108.1703-.236.4106-.4125.6867-.5045l15.701-5.2337v-8.7134c0-.2575.0716-.5099.2069-.729.1352-.219.3288-.3961.559-.5115l22.1999-11.1c.2118-.1059.4471-.156.6837-.1453.2365.0107.4664.0817.6678.2064zM35.65 39.1255l-13.875 4.6231v12.876H35.65V39.1255zm2.775 17.4991h5.55v-4.1625c0-.368.1461-.7209.4063-.9811.2603-.2602.6132-.4064.9812-.4064h5.5499c.368 0 .721.1462.9812.4064s.4063.6131.4063.9811v4.1625h5.55V18.6321L38.425 28.3446v28.28z" fill="#666"/><path d="M24.5498 45.5249h2.775v2.775h-2.775v-2.775zm5.55 0h2.775v2.775h-2.775v-2.775zm-5.55 5.55h2.775v2.775h-2.775v-2.775zm5.55 0h2.775v2.775h-2.775v-2.775zm11.1-11.1h2.775v2.775h-2.775v-2.775zm5.55 0h2.775v2.775h-2.775v-2.775zm-5.55 5.55h2.775v2.775h-2.775v-2.775zm5.55 0h2.775v2.775h-2.775v-2.775zm5.55-5.55h2.775v2.775h-2.775v-2.775zm0 5.55h2.775v2.775h-2.775v-2.775zm-11.1-11.1h2.775v2.775h-2.775v-2.775zm5.55 0h2.775v2.775h-2.775v-2.775zm5.55 0h2.775v2.775h-2.775v-2.775zm-11.1-5.55h2.775v2.775h-2.775v-2.775zm5.55 0h2.775v2.775h-2.775v-2.775zm5.55 0h2.775v2.775h-2.775v-2.775zm0-5.5499h2.775v2.7749h-2.775V23.325z" fill="#666"/></svg>