<svg width="20" height="20" viewBox="0 0 20 20" fill="none" xmlns="http://www.w3.org/2000/svg"><path fill-rule="evenodd" clip-rule="evenodd" d="M3.26539 2.65308H16.3266c1.3447 0 2.4422 1.09339 2.449 2.43649a.742054.742054 0 010 .0211V14.898c0 1.3488-1.1002 2.449-2.449 2.449H3.26539c-1.34881 0-2.448984-1.1002-2.448984-2.449V5.1132m1.719654-.37526l7.25992 5.08195 7.25992-5.08197c-.135-.26695-.4126-.45219-.7293-.45219H3.26539c-.31671 0-.59433.18525-.72933.45221zm.72933-2.08486C1.92177 2.65308.824877 3.7448.816455 5.0865zm-.81633 4.01687V14.898c0 .4471.36921.8163.81633.8163H16.3266c.4471 0 .8163-.3692.8163-.8163V6.66993l-6.8788 4.81517c-.28106.1968-.65517.1968-.93625 0L2.44906 6.66995z" fill="#000"/><mask id="a" style="mask-type:alpha" maskUnits="userSpaceOnUse" x="0" y="2" width="19" height="16"><path fill-rule="evenodd" clip-rule="evenodd" d="M3.26539 2.65308H16.3266c1.3447 0 2.4422 1.09339 2.449 2.43649a.742054.742054 0 010 .0211V14.898c0 1.3488-1.1002 2.449-2.449 2.449H3.26539c-1.34881 0-2.448984-1.1002-2.448984-2.449V5.1132m1.719654-.37526l7.25992 5.08195 7.25992-5.08197c-.135-.26695-.4126-.45219-.7293-.45219H3.26539c-.31671 0-.59433.18525-.72933.45221zm.72933-2.08486C1.92177 2.65308.824877 3.7448.816455 5.0865zm-.81633 4.01687V14.898c0 .4471.36921.8163.81633.8163H16.3266c.4471 0 .8163-.3692.8163-.8163V6.66993l-6.8788 4.81517c-.28106.1968-.65517.1968-.93625 0L2.44906 6.66995z" fill="#fff"/></mask><g mask="url(#a)"><path fill="#000" d="M0 .204102h19.5918v19.5918H0z"/></g></svg>