<svg width="80" height="80" viewBox="0 0 80 80" fill="none" xmlns="http://www.w3.org/2000/svg"><rect width="80" height="80" rx="40" fill="#fff"/><path d="M40.6709 17.331c-.1536-.154-.3361-.2762-.537-.3596a1.65398 1.65398 0 00-.6339-.1263c-.2175 0-.4329.0429-.6339.1263-.2009.0834-.3834.2056-.537.3596L18.4829 37.1772c-.1535.1538-.2751.3364-.358.5373-.0828.201-.1253.4162-.1249.6336v23.1538c0 .4386.1742.8593.4844 1.1695.3102.3101.7308.4844 1.1694.4844h14.8847c.4386 0 .8593-.1743 1.1694-.4844.3102-.3102.4844-.7309.4844-1.1695V48.2711h6.6154v13.2308c0 .4386.1742.8593.4844 1.1695.3101.3101.7308.4844 1.1694.4844h14.8846c.4387 0 .8593-.1743 1.1695-.4844.3102-.3102.4844-.7309.4844-1.1695V38.3481c.0004-.2174-.0421-.4326-.1249-.6336-.0829-.2009-.2045-.3835-.358-.5373l-4.4786-4.4754V21.8096c0-.4386-.1743-.8593-.4844-1.1694-.3102-.3102-.7309-.4844-1.1695-.4844h-3.3077c-.4386 0-.8593.1742-1.1694.4844-.3102.3101-.4844.7308-.4844 1.1694v4.2769l-8.7522-8.7555zM21.3077 59.8481V39.0328L39.5 20.8405l18.1923 18.1923v20.8153H46.1154V46.6173c0-.4386-.1743-.8593-.4844-1.1694-.3102-.3102-.7308-.4844-1.1695-.4844h-9.923c-.4387 0-.8593.1742-1.1695.4844-.3101.3101-.4844.7308-.4844 1.1694v13.2308H21.3077z" fill="#666"/><path fill="#666" stroke="#666" stroke-width="2" d="M51 39.9999h2v5h-2zM26 39.9999h2v5h-2z"/></svg>