<svg width="336" height="51" viewBox="0 0 336 51" fill="none" xmlns="http://www.w3.org/2000/svg">
<path d="M24.0979 5.8541C24.6966 4.01148 27.3034 4.01148 27.9021 5.8541L31.2761 16.2381C31.5438 17.0621 32.3117 17.6201 33.1782 17.6201L44.0966 17.6201C46.034 17.6201 46.8396 20.0993 45.2721 21.2381L36.439 27.6558C35.738 28.1651 35.4447 29.0678 35.7124 29.8918L39.0864 40.2758C39.6851 42.1185 37.5762 43.6507 36.0087 42.5119L27.1756 36.0942C26.4746 35.5849 25.5254 35.5849 24.8244 36.0942L15.9913 42.5119C14.4238 43.6507 12.3149 42.1185 12.9136 40.2758L16.2876 29.8918C16.5553 29.0678 16.262 28.1651 15.561 27.6558L6.72785 21.2381C5.16043 20.0993 5.96598 17.6201 7.90342 17.6201L18.8218 17.6201C19.6883 17.6201 20.4562 17.0621 20.7239 16.2381L24.0979 5.8541Z" fill="#70B7BD"/>
<path d="M95.0979 5.8541C95.6966 4.01148 98.3034 4.01148 98.9021 5.8541L102.276 16.2381C102.544 17.0621 103.312 17.6201 104.178 17.6201L115.097 17.6201C117.034 17.6201 117.84 20.0993 116.272 21.2381L107.439 27.6558C106.738 28.1651 106.445 29.0678 106.712 29.8918L110.086 40.2758C110.685 42.1185 108.576 43.6507 107.009 42.5119L98.1756 36.0942C97.4746 35.5849 96.5254 35.5849 95.8244 36.0942L86.9913 42.5119C85.4238 43.6507 83.3149 42.1185 83.9136 40.2758L87.2876 29.8918C87.5553 29.0678 87.262 28.1651 86.561 27.6558L77.7279 21.2381C76.1604 20.0993 76.966 17.6201 78.9034 17.6201L89.8218 17.6201C90.6883 17.6201 91.4562 17.0621 91.7239 16.2381L95.0979 5.8541Z" fill="#70B7BD"/>
<path d="M166.098 5.8541C166.697 4.01148 169.303 4.01148 169.902 5.8541L173.276 16.2381C173.544 17.0621 174.312 17.6201 175.178 17.6201L186.097 17.6201C188.034 17.6201 188.84 20.0993 187.272 21.2381L178.439 27.6558C177.738 28.1651 177.445 29.0678 177.712 29.8918L181.086 40.2758C181.685 42.1185 179.576 43.6507 178.009 42.5119L169.176 36.0942C168.475 35.5849 167.525 35.5849 166.824 36.0942L157.991 42.5119C156.424 43.6507 154.315 42.1185 154.914 40.2758L158.288 29.8918C158.555 29.0678 158.262 28.1651 157.561 27.6558L148.728 21.2381C147.16 20.0993 147.966 17.6201 149.903 17.6201L160.822 17.6201C161.688 17.6201 162.456 17.0621 162.724 16.2381L166.098 5.8541Z" fill="#70B7BD"/>
<path d="M237.098 5.8541C237.697 4.01148 240.303 4.01148 240.902 5.8541L244.276 16.2381C244.544 17.0621 245.312 17.6201 246.178 17.6201L257.097 17.6201C259.034 17.6201 259.84 20.0993 258.272 21.2381L249.439 27.6558C248.738 28.1651 248.445 29.0678 248.712 29.8918L252.086 40.2758C252.685 42.1185 250.576 43.6507 249.009 42.5119L240.176 36.0942C239.475 35.5849 238.525 35.5849 237.824 36.0942L228.991 42.5119C227.424 43.6507 225.315 42.1185 225.914 40.2758L229.288 29.8918C229.555 29.0678 229.262 28.1651 228.561 27.6558L219.728 21.2381C218.16 20.0993 218.966 17.6201 220.903 17.6201L231.822 17.6201C232.688 17.6201 233.456 17.0621 233.724 16.2381L237.098 5.8541Z" fill="#70B7BD"/>
<path d="M308.098 5.8541C308.697 4.01148 311.303 4.01148 311.902 5.8541L315.276 16.2381C315.544 17.0621 316.312 17.6201 317.178 17.6201L328.097 17.6201C330.034 17.6201 330.84 20.0993 329.272 21.2381L320.439 27.6558C319.738 28.1651 319.445 29.0678 319.712 29.8918L323.086 40.2758C323.685 42.1185 321.576 43.6507 320.009 42.5119L311.176 36.0942C310.475 35.5849 309.525 35.5849 308.824 36.0942L299.991 42.5119C298.424 43.6507 296.315 42.1185 296.914 40.2758L300.288 29.8918C300.555 29.0678 300.262 28.1651 299.561 27.6558L290.728 21.2381C289.16 20.0993 289.966 17.6201 291.903 17.6201L302.822 17.6201C303.688 17.6201 304.456 17.0621 304.724 16.2381L308.098 5.8541Z" fill="#70B7BD"/>
</svg>
